<svg xmlns="http://www.w3.org/2000/svg" xmlns:xlink="http://www.w3.org/1999/xlink" width="500" zoomAndPan="magnify" viewBox="0 0 375 374.999991" height="500" preserveAspectRatio="xMidYMid meet" version="1.0"><defs><g/><clipPath id="id1"><path d="M 93.34375 166.308594 L 259.09375 166.308594 L 259.09375 206.808594 L 93.34375 206.808594 Z M 93.34375 166.308594 " clip-rule="nonzero"/></clipPath></defs><g fill="#231f20" fill-opacity="1"><g transform="translate(112.066408, 259.616186)"><g><path d="M 112.441406 -32.9375 C 103.589844 -54.363281 89.070312 -62.863281 71.539062 -66.050781 C 98.808594 -68.175781 120.234375 -77.027344 120.234375 -103.589844 C 120.234375 -135.109375 90.132812 -141.660156 56.132812 -141.660156 L 12.394531 -141.660156 C 13.8125 -128.203125 14.34375 -120.234375 14.34375 -103.765625 L 14.34375 -37.894531 C 14.34375 -21.425781 13.8125 -13.457031 12.394531 0 L 46.039062 0 C 44.625 -13.457031 44.09375 -21.425781 44.09375 -37.894531 L 44.09375 -65.519531 L 47.988281 -65.519531 C 64.808594 -65.519531 72.070312 -60.558594 81.632812 -31.695312 C 90.664062 -4.605469 110.851562 0 144.847656 0 L 144.847656 -3.363281 C 128.910156 -3.363281 121.296875 -11.332031 112.441406 -32.9375 Z M 44.09375 -69.238281 L 44.09375 -137.941406 L 55.601562 -137.941406 C 73.839844 -137.941406 89.953125 -130.859375 89.953125 -103.589844 C 89.953125 -76.320312 73.839844 -69.238281 55.601562 -69.238281 Z M 44.09375 -69.238281 "/></g></g></g><g clip-path="url(#id1)"><path fill="#fbfaf9" d="M 93.351562 166.308594 L 259.082031 166.308594 L 259.082031 206.808594 L 93.351562 206.808594 L 93.351562 166.308594 " fill-opacity="1" fill-rule="nonzero"/></g><g fill="#dec2ba" fill-opacity="1"><g transform="translate(106.086832, 191.604482)"><g><path d="M 6.640625 0 L 5.0625 -2.625 C 4.976562 -2.613281 4.84375 -2.609375 4.65625 -2.609375 L 2.609375 -2.609375 L 2.609375 0 L 1.140625 0 L 1.140625 -8.671875 L 4.65625 -8.671875 C 5.757812 -8.671875 6.617188 -8.410156 7.234375 -7.890625 C 7.847656 -7.378906 8.15625 -6.65625 8.15625 -5.71875 C 8.15625 -5.019531 8 -4.429688 7.6875 -3.953125 C 7.375 -3.472656 6.929688 -3.125 6.359375 -2.90625 L 8.296875 0 Z M 2.609375 -3.921875 L 4.65625 -3.921875 C 6.0625 -3.921875 6.765625 -4.503906 6.765625 -5.671875 C 6.765625 -6.796875 6.0625 -7.359375 4.65625 -7.359375 L 2.609375 -7.359375 Z M 2.609375 -3.921875 "/></g></g></g><g fill="#dec2ba" fill-opacity="1"><g transform="translate(124.964795, 191.604482)"><g><path d="M 7.328125 -7.359375 L 2.609375 -7.359375 L 2.609375 -5.015625 L 6.84375 -5.015625 L 6.84375 -3.703125 L 2.609375 -3.703125 L 2.609375 -1.3125 L 7.484375 -1.3125 L 7.484375 0 L 1.140625 0 L 1.140625 -8.671875 L 7.328125 -8.671875 Z M 7.328125 -7.359375 "/></g></g></g><g fill="#dec2ba" fill-opacity="1"><g transform="translate(143.012897, 191.604482)"><g><path d="M 3.984375 -8.734375 C 5.109375 -8.734375 6.125 -8.4375 7.03125 -7.84375 L 6.421875 -6.546875 C 5.535156 -7.085938 4.6875 -7.359375 3.875 -7.359375 C 3.4375 -7.359375 3.09375 -7.28125 2.84375 -7.125 C 2.59375 -6.96875 2.46875 -6.742188 2.46875 -6.453125 C 2.46875 -6.160156 2.582031 -5.914062 2.8125 -5.71875 C 3.039062 -5.519531 3.328125 -5.367188 3.671875 -5.265625 C 4.023438 -5.171875 4.40625 -5.050781 4.8125 -4.90625 C 5.21875 -4.769531 5.59375 -4.617188 5.9375 -4.453125 C 6.28125 -4.296875 6.566406 -4.046875 6.796875 -3.703125 C 7.023438 -3.359375 7.140625 -2.941406 7.140625 -2.453125 C 7.140625 -1.691406 6.832031 -1.082031 6.21875 -0.625 C 5.613281 -0.175781 4.828125 0.046875 3.859375 0.046875 C 3.203125 0.046875 2.5625 -0.0703125 1.9375 -0.3125 C 1.320312 -0.5625 0.785156 -0.898438 0.328125 -1.328125 L 0.953125 -2.59375 C 1.390625 -2.1875 1.867188 -1.875 2.390625 -1.65625 C 2.921875 -1.4375 3.421875 -1.328125 3.890625 -1.328125 C 4.398438 -1.328125 4.796875 -1.421875 5.078125 -1.609375 C 5.367188 -1.796875 5.515625 -2.050781 5.515625 -2.375 C 5.515625 -2.675781 5.394531 -2.925781 5.15625 -3.125 C 4.925781 -3.332031 4.640625 -3.484375 4.296875 -3.578125 C 3.953125 -3.671875 3.578125 -3.785156 3.171875 -3.921875 C 2.765625 -4.054688 2.390625 -4.195312 2.046875 -4.34375 C 1.703125 -4.5 1.410156 -4.742188 1.171875 -5.078125 C 0.941406 -5.421875 0.828125 -5.832031 0.828125 -6.3125 C 0.828125 -7.050781 1.113281 -7.640625 1.6875 -8.078125 C 2.269531 -8.515625 3.035156 -8.734375 3.984375 -8.734375 Z M 3.984375 -8.734375 "/></g></g></g><g fill="#dec2ba" fill-opacity="1"><g transform="translate(160.639881, 191.604482)"><g><path d="M 1.75 -7.4375 C 2.632812 -8.28125 3.722656 -8.703125 5.015625 -8.703125 C 6.316406 -8.703125 7.40625 -8.28125 8.28125 -7.4375 C 9.164062 -6.601562 9.609375 -5.566406 9.609375 -4.328125 C 9.609375 -3.097656 9.164062 -2.054688 8.28125 -1.203125 C 7.40625 -0.359375 6.316406 0.0625 5.015625 0.0625 C 3.722656 0.0625 2.632812 -0.359375 1.75 -1.203125 C 0.863281 -2.054688 0.421875 -3.097656 0.421875 -4.328125 C 0.421875 -5.566406 0.863281 -6.601562 1.75 -7.4375 Z M 5.03125 -7.390625 C 4.164062 -7.390625 3.425781 -7.09375 2.8125 -6.5 C 2.207031 -5.914062 1.90625 -5.191406 1.90625 -4.328125 C 1.90625 -3.472656 2.210938 -2.742188 2.828125 -2.140625 C 3.441406 -1.546875 4.175781 -1.25 5.03125 -1.25 C 5.882812 -1.25 6.609375 -1.546875 7.203125 -2.140625 C 7.804688 -2.742188 8.109375 -3.472656 8.109375 -4.328125 C 8.109375 -5.191406 7.804688 -5.914062 7.203125 -6.5 C 6.609375 -7.09375 5.882812 -7.390625 5.03125 -7.390625 Z M 5.03125 -7.390625 "/></g></g></g><g fill="#dec2ba" fill-opacity="1"><g transform="translate(180.595415, 191.604482)"><g><path d="M 8.65625 0 L 7.21875 0 L 2.609375 -6.21875 L 2.609375 0 L 1.140625 0 L 1.140625 -8.671875 L 2.578125 -8.671875 L 7.21875 -2.4375 L 7.21875 -8.671875 L 8.65625 -8.671875 Z M 8.65625 0 "/></g></g></g><g fill="#dec2ba" fill-opacity="1"><g transform="translate(200.328002, 191.604482)"><g><path d="M 6.734375 -1.953125 L 2.359375 -1.953125 L 1.53125 0 L 0.015625 0 L 3.84375 -8.671875 L 5.34375 -8.671875 L 9.125 0 L 7.578125 0 Z M 6.1875 -3.265625 L 4.546875 -7.109375 L 2.90625 -3.265625 Z M 6.1875 -3.265625 "/></g></g></g><g fill="#dec2ba" fill-opacity="1"><g transform="translate(219.391748, 191.604482)"><g><path d="M 6.640625 0 L 5.0625 -2.625 C 4.976562 -2.613281 4.84375 -2.609375 4.65625 -2.609375 L 2.609375 -2.609375 L 2.609375 0 L 1.140625 0 L 1.140625 -8.671875 L 4.65625 -8.671875 C 5.757812 -8.671875 6.617188 -8.410156 7.234375 -7.890625 C 7.847656 -7.378906 8.15625 -6.65625 8.15625 -5.71875 C 8.15625 -5.019531 8 -4.429688 7.6875 -3.953125 C 7.375 -3.472656 6.929688 -3.125 6.359375 -2.90625 L 8.296875 0 Z M 2.609375 -3.921875 L 4.65625 -3.921875 C 6.0625 -3.921875 6.765625 -4.503906 6.765625 -5.671875 C 6.765625 -6.796875 6.0625 -7.359375 4.65625 -7.359375 L 2.609375 -7.359375 Z M 2.609375 -3.921875 "/></g></g></g><g fill="#dec2ba" fill-opacity="1"><g transform="translate(238.269704, 191.604482)"><g><path d="M 7.328125 -7.359375 L 2.609375 -7.359375 L 2.609375 -5.015625 L 6.84375 -5.015625 L 6.84375 -3.703125 L 2.609375 -3.703125 L 2.609375 -1.3125 L 7.484375 -1.3125 L 7.484375 0 L 1.140625 0 L 1.140625 -8.671875 L 7.328125 -8.671875 Z M 7.328125 -7.359375 "/></g></g></g></svg>